mtllib material.mtl
o Default
v -4.6883144590349965e-17 0 0 1 1 1
v -4.6883144590349965e-17 0.5 0 1 1 1
v 6.413915456344324e-17 0.5 0.5 1 1 1
v 6.413915456344324e-17 0 0.5 1 1 1
v 6.413915456344324e-17 0 0.5 1 1 1
v -1.6119458385140594e-15 0.5 1 1 1 1
v 6.413915456344324e-17 0.5 0.5 1 1 1
v -1.6119458385140594e-15 0 1 1 1 1
v 6.413915456344324e-17 0.5 0.5 1 1 1
v 1.6112350719921947e-16 1 1 1 1 1
v 5.0101208045426264e-17 1 0.5 1 1 1
v -1.6119458385140594e-15 0.5 1 1 1 1
v -4.6883144590349965e-17 0.5 0 1 1 1
v 5.0101208045426264e-17 1 0.5 1 1 1
v -1.8423987277482474e-15 1 0 1 1 1
v 6.413915456344324e-17 0.5 0.5 1 1 1
vt 0.5 0.875
vt 0.625 1
vt 0.5 1
vt 0.5 0.875
vt 0.625 0.875
vt 0.625 1
vt 0.625 0.875
vt 0.75 1
vt 0.625 1
vt 0.625 0.875
vt 0.75 0.875
vt 0.75 1
vt 0.5 0.625
vt 0.625 0.75
vt 0.5 0.75
vt 0.5 0.625
vt 0.625 0.625
vt 0.625 0.75
vt 0.5 0.625
vt 0.625 0.75
vt 0.5 0.75
vt 0.5 0.625
vt 0.625 0.625
vt 0.625 0.75
vn -1 0 2.220445983075864e-16
vn -1 0 2.220445983075864e-16
vn -1 0 2.220445983075864e-16
vn -1 0 2.220445983075864e-16
vn -1 0 2.220445983075864e-16
vn -1 0 2.220445983075864e-16
vn -1 0 -3.3521699861550054e-15
vn -1 0 -3.3521699861550054e-15
vn -1 0 -3.3521699861550054e-15
vn -1 0 -3.3521699861550054e-15
vn -1 0 -3.3521699861550054e-15
vn -1 0 -3.3521699861550054e-15
vn -1 -2.807589303603395e-17 2.220445983075864e-16
vn -1 -2.807589303603395e-17 2.220445983075864e-16
vn -1 -2.807589303603395e-17 2.220445983075864e-16
vn -1 3.546138691426558e-15 -3.3521699861550054e-15
vn -1 3.546138691426558e-15 -3.3521699861550054e-15
vn -1 3.546138691426558e-15 -3.3521699861550054e-15
vn -1 -3.591031166315795e-15 3.784999871587347e-15
vn -1 -3.591031166315795e-15 3.784999871587347e-15
vn -1 -3.591031166315795e-15 3.784999871587347e-15
vn -1 -2.807589303603395e-17 2.220445983075864e-16
vn -1 -2.807589303603395e-17 2.220445983075864e-16
vn -1 -2.807589303603395e-17 2.220445983075864e-16
g DoorwayBlocker
usemtl material2
f 1/1/1 3/2/2 2/3/3
f 1/4/4 4/5/5 3/6/6
f 5/7/7 6/8/8 7/9/9
f 5/10/10 8/11/11 6/12/12
f 9/13/13 10/14/14 11/15/15
f 9/16/16 12/17/17 10/18/18
f 13/19/19 14/20/20 15/21/21
f 13/22/22 16/23/23 14/24/24
