mtllib material.mtl
o Default
v 0 -0.00011850183364003897 0.9999499917030334 1 1 1
v 0 -0.00007987505523487926 0.5 1 1 1
v 0.5 -0.00007987505523487926 0.5 1 1 1
v 0.5 -0.00011850183364003897 0.9999499917030334 1 1 1
v 0 -0.00007987505523487926 0.5 1 1 1
v 0.5 -0.000029875056497985497 0 1 1 1
v 0 -0.000029875056497985497 0 1 1 1
v 0.5 -0.00007987505523487926 0.5 1 1 1
vt 0.125 0.5
vt 0.25 0.625
vt 0.125 0.625
vt 0.125 0.5
vt 0.25 0.5
vt 0.25 0.625
vt 0.125 0.625
vt 0.25 0.75
vt 0.125 0.75
vt 0.125 0.625
vt 0.25 0.625
vt 0.25 0.75
vn 0 0.999999997015347 0.00007726128399021197
vn 0 0.999999997015347 0.00007726128399021197
vn 0 0.999999997015347 0.00007726128399021197
vn 0 0.999999997015347 0.00007726128399021197
vn 0 0.999999997015347 0.00007726128399021197
vn 0 0.999999997015347 0.00007726128399021197
vn 0 0.9999999950000003 0.00009999999697378756
vn 0 0.9999999950000003 0.00009999999697378756
vn 0 0.9999999950000003 0.00009999999697378756
vn 0 0.9999999950000003 0.00009999999697378756
vn 0 0.9999999950000003 0.00009999999697378756
vn 0 0.9999999950000003 0.00009999999697378756
g PathWay
usemtl material2
f 1/1/1 3/2/2 2/3/3
f 1/4/4 4/5/5 3/6/6
f 5/7/7 6/8/8 7/9/9
f 5/10/10 8/11/11 6/12/12
